<svg id="logo" data-name="logo" xmlns="http://www.w3.org/2000/svg" viewBox="0 0 64 64"><defs><style>.cls-1{fill:#2196F3;}</style></defs><title>logo</title><path d="M40.37,41.31,48.5,29.05H38.89L30.73,41.27,28.56,44.5v4.64h25V41.27Z"/><path class="cls-1" d="M30.73,41.27l-8.47,0,8.13-12.26H20.78L10.45,44.5v4.64h25V41.27Z"/><polygon class="cls-1" points="53.25 17.65 53.25 21.87 48.5 29.05 38.89 29.05 41.59 25.02 33.04 25.06 29.17 25.06 29.17 17.65 53.25 17.65"/><polygon points="37.2 14.86 37.2 19.08 32.45 26.26 22.84 26.26 25.54 22.23 16.99 22.27 13.12 22.27 13.12 14.86 37.2 14.86"/></svg>